<?xml version="1.0" standalone="no"?><svg xmlns="http://www.w3.org/2000/svg" viewBox="0 0 1440 320"><path fill="#ffffff" fill-opacity="1" d="M0,288L15,261.3C30,235,60,181,90,186.7C120,192,150,256,180,261.3C210,267,240,213,270,186.7C300,160,330,160,360,144C390,128,420,96,450,74.7C480,53,510,43,540,74.7C570,107,600,181,630,208C660,235,690,213,720,186.7C750,160,780,128,810,128C840,128,870,160,900,197.3C930,235,960,277,990,266.7C1020,256,1050,192,1080,170.7C1110,149,1140,171,1170,176C1200,181,1230,171,1260,165.3C1290,160,1320,160,1350,186.7C1380,213,1410,267,1425,293.3L1440,320L1440,320L1425,320C1410,320,1380,320,1350,320C1320,320,1290,320,1260,320C1230,320,1200,320,1170,320C1140,320,1110,320,1080,320C1050,320,1020,320,990,320C960,320,930,320,900,320C870,320,840,320,810,320C780,320,750,320,720,320C690,320,660,320,630,320C600,320,570,320,540,320C510,320,480,320,450,320C420,320,390,320,360,320C330,320,300,320,270,320C240,320,210,320,180,320C150,320,120,320,90,320C60,320,30,320,15,320L0,320Z"></path></svg>